<?xml version="1.0" encoding="utf-8"?>
<!-- Generator: Adobe Illustrator 21.1.0, SVG Export Plug-In . SVG Version: 6.00 Build 0)  -->
<svg version="1.1" id="Layer_1" xmlns="http://www.w3.org/2000/svg" xmlns:xlink="http://www.w3.org/1999/xlink" x="0px" y="0px"
	 viewBox="0 0 78.1 49.2" style="enable-background:new 0 0 78.1 49.2;" xml:space="preserve">
<style type="text/css">
	.st0{fill:#4177A2;}
	.st1{fill:none;stroke:#FFFFFF;stroke-width:0.9042;stroke-miterlimit:10;}
	.st2{fill:none;stroke:#FFFFFF;stroke-width:0.5458;stroke-miterlimit:10;}
</style>
<rect x="12.6" y="11.9" class="st0" width="56.5" height="28.3"/>
<g>
	<g>
		<g>
			<path class="st1" d="M44.4,18.9c-1.2,0-2.3,0.3-3.3,0.8c-1-0.5-2.1-0.8-3.3-0.8c-3.9,0-7.1,3.2-7.1,7.1c0,3.9,3.2,7.1,7.1,7.1
				c1.2,0,2.3-0.3,3.3-0.8c1,0.5,2.1,0.8,3.3,0.8c3.9,0,7.1-3.2,7.1-7.1C51.5,22.1,48.3,18.9,44.4,18.9z"/>
		</g>
	</g>
	<g>
		<g>
			<path class="st2" d="M43.3,21.8c-0.8,0-1.6,0.2-2.2,0.6c-0.7-0.4-1.4-0.6-2.2-0.6c-2.4,0-4.3,1.9-4.3,4.3c0,2.4,1.9,4.3,4.3,4.3
				c0.8,0,1.6-0.2,2.2-0.6c0.7,0.4,1.4,0.6,2.2,0.6c2.4,0,4.3-1.9,4.3-4.3C47.6,23.7,45.7,21.8,43.3,21.8z"/>
		</g>
	</g>
</g>
</svg>
